<svg width="24" height="24" viewBox="0 0 24 24" fill="none" xmlns="http://www.w3.org/2000/svg">
<rect width="24" height="24" rx="12" fill="#D7E5FD"/>
<path d="M9.97 14.67H7.19L6.73 16H5.26L7.77 9.01H9.4L11.91 16H10.43L9.97 14.67ZM9.59 13.55L8.58 10.63L7.57 13.55H9.59ZM15.2582 16.07C14.7715 16.07 14.3315 15.9867 13.9382 15.82C13.5515 15.6533 13.2449 15.4133 13.0182 15.1C12.7915 14.7867 12.6749 14.4167 12.6682 13.99H14.1682C14.1882 14.2767 14.2882 14.5033 14.4682 14.67C14.6549 14.8367 14.9082 14.92 15.2282 14.92C15.5549 14.92 15.8115 14.8433 15.9982 14.69C16.1849 14.53 16.2782 14.3233 16.2782 14.07C16.2782 13.8633 16.2149 13.6933 16.0882 13.56C15.9615 13.4267 15.8015 13.3233 15.6082 13.25C15.4215 13.17 15.1615 13.0833 14.8282 12.99C14.3749 12.8567 14.0049 12.7267 13.7182 12.6C13.4382 12.4667 13.1949 12.27 12.9882 12.01C12.7882 11.7433 12.6882 11.39 12.6882 10.95C12.6882 10.5367 12.7915 10.1767 12.9982 9.87C13.2049 9.56333 13.4949 9.33 13.8682 9.17C14.2415 9.00333 14.6682 8.92 15.1482 8.92C15.8682 8.92 16.4515 9.09667 16.8982 9.45C17.3515 9.79667 17.6015 10.2833 17.6482 10.91H16.1082C16.0949 10.67 15.9915 10.4733 15.7982 10.32C15.6115 10.16 15.3615 10.08 15.0482 10.08C14.7749 10.08 14.5549 10.15 14.3882 10.29C14.2282 10.43 14.1482 10.6333 14.1482 10.9C14.1482 11.0867 14.2082 11.2433 14.3282 11.37C14.4549 11.49 14.6082 11.59 14.7882 11.67C14.9749 11.7433 15.2349 11.83 15.5682 11.93C16.0215 12.0633 16.3915 12.1967 16.6782 12.33C16.9649 12.4633 17.2115 12.6633 17.4182 12.93C17.6249 13.1967 17.7282 13.5467 17.7282 13.98C17.7282 14.3533 17.6315 14.7 17.4382 15.02C17.2449 15.34 16.9615 15.5967 16.5882 15.79C16.2149 15.9767 15.7715 16.07 15.2582 16.07Z" fill="#B1CDFD"/>
</svg>
