<svg width="18" height="18" viewBox="0 0 18 18" fill="none" xmlns="http://www.w3.org/2000/svg">
<path d="M12.0303 10.9697C11.7374 10.6768 11.2626 10.6768 10.9697 10.9697C10.6768 11.2626 10.6768 11.7374 10.9697 12.0303L12.0303 10.9697ZM15.9697 17.0303C16.2626 17.3232 16.7374 17.3232 17.0303 17.0303C17.3232 16.7374 17.3232 16.2626 17.0303 15.9697L15.9697 17.0303ZM7.33333 12.4167C4.52589 12.4167 2.25 10.1408 2.25 7.33333H0.75C0.75 10.9692 3.69746 13.9167 7.33333 13.9167V12.4167ZM2.25 7.33333C2.25 4.52589 4.52589 2.25 7.33333 2.25V0.75C3.69746 0.75 0.75 3.69746 0.75 7.33333H2.25ZM7.33333 2.25C10.1408 2.25 12.4167 4.52589 12.4167 7.33333H13.9167C13.9167 3.69746 10.9692 0.75 7.33333 0.75V2.25ZM12.4167 7.33333C12.4167 10.1408 10.1408 12.4167 7.33333 12.4167V13.9167C10.9692 13.9167 13.9167 10.9692 13.9167 7.33333H12.4167ZM10.9697 12.0303L15.9697 17.0303L17.0303 15.9697L12.0303 10.9697L10.9697 12.0303Z" fill="#B0BABF"/>
</svg>
